solid TB
facet normal 2.3897550605056488e-14 0.0 1.0
  outer loop
    vertex 5604.659078071093 26165.883611971614 140.0000000000065
    vertex 5614.659078071092 26175.88361197161 140.00000000000443
    vertex 5604.659078071093 26305.883611971618 140.0000000000065
  endloop
endfacet
facet normal 2.3897550605056488e-14 0.0 1.0
  outer loop
    vertex 5614.659078071092 26175.88361197161 140.00000000000443
    vertex 5604.659078071093 26165.883611971614 140.0000000000065
    vertex 5744.65907807109 26165.883611971614 140.00000000000045
  endloop
endfacet
facet normal 2.3897550605056488e-14 0.0 1.0
  outer loop
    vertex 5614.659078071092 26175.88361197161 140.00000000000443
    vertex 5744.65907807109 26165.883611971614 140.00000000000045
    vertex 5734.659078071094 26175.88361197161 139.99999999999935
  endloop
endfacet
facet normal 2.3897550605056488e-14 0.0 1.0
  outer loop
    vertex 5734.659078071094 26175.88361197161 139.99999999999935
    vertex 5744.65907807109 26165.883611971614 140.00000000000045
    vertex 5734.659078071094 26295.883611971618 139.99999999999935
  endloop
endfacet
facet normal 2.3897550605056488e-14 0.0 1.0
  outer loop
    vertex 5604.659078071093 26305.883611971618 140.0000000000065
    vertex 5614.659078071092 26295.883611971607 140.00000000000443
    vertex 5744.65907807109 26305.883611971618 140.00000000000045
  endloop
endfacet
facet normal 2.3897550605056488e-14 0.0 1.0
  outer loop
    vertex 5614.659078071092 26295.883611971607 140.00000000000443
    vertex 5604.659078071093 26305.883611971618 140.0000000000065
    vertex 5614.659078071092 26175.88361197161 140.00000000000443
  endloop
endfacet
facet normal 2.3897550605056488e-14 0.0 1.0
  outer loop
    vertex 5744.65907807109 26305.883611971618 140.00000000000045
    vertex 5614.659078071092 26295.883611971607 140.00000000000443
    vertex 5734.659078071094 26295.883611971618 139.99999999999935
  endloop
endfacet
facet normal 2.3897550605056488e-14 0.0 1.0
  outer loop
    vertex 5744.65907807109 26305.883611971618 140.00000000000045
    vertex 5734.659078071094 26295.883611971618 139.99999999999935
    vertex 5744.65907807109 26165.883611971614 140.00000000000045
  endloop
endfacet
facet normal -1.0 -3.555091901400182e-14 -8.93729534823251e-15
  outer loop
    vertex 5744.659078071095 26175.88361197161 280.00000000000114
    vertex 5744.65907807109 26165.883611971614 140.00000000000045
    vertex 5744.659078071095 26165.883611971614 280.00000000000114
  endloop
endfacet
facet normal -1.0 -3.555091901400182e-14 -8.93729534823251e-15
  outer loop
    vertex 5744.65907807109 26165.883611971614 140.00000000000045
    vertex 5744.659078071095 26175.88361197161 280.00000000000114
    vertex 5744.659078071108 26175.883611971607 174.99999999999972
  endloop
endfacet
facet normal -1.0 -3.555091901400182e-14 -8.93729534823251e-15
  outer loop
    vertex 5744.65907807109 26165.883611971614 140.00000000000045
    vertex 5744.659078071104 26200.88361197161 149.999999999915
    vertex 5744.65907807109 26305.883611971618 140.00000000000045
  endloop
endfacet
facet normal -1.0 -3.555091901400182e-14 -8.93729534823251e-15
  outer loop
    vertex 5744.659078071104 26200.88361197161 149.999999999915
    vertex 5744.65907807109 26165.883611971614 140.00000000000045
    vertex 5744.659078071108 26175.883611971607 174.99999999999972
  endloop
endfacet
facet normal -1.0 -3.555091901400182e-14 -8.93729534823251e-15
  outer loop
    vertex 5744.65907807109 26305.883611971618 140.00000000000045
    vertex 5744.659078071104 26200.88361197161 149.999999999915
    vertex 5744.65907807109 26270.883611971618 149.99999999997527
  endloop
endfacet
facet normal -1.0 -3.555091901400182e-14 -8.93729534823251e-15
  outer loop
    vertex 5744.65907807109 26305.883611971618 140.00000000000045
    vertex 5744.65907807109 26270.883611971618 149.99999999997527
    vertex 5744.659078071095 26295.883611971614 174.99999999999955
  endloop
endfacet
facet normal -1.0 -3.555091901400182e-14 -8.93729534823251e-15
  outer loop
    vertex 5744.65907807109 26305.883611971618 140.00000000000045
    vertex 5744.659078071095 26295.883611971614 174.99999999999955
    vertex 5744.659078071095 26295.883611971618 280.00000000000114
  endloop
endfacet
facet normal -1.0 -3.555091901400182e-14 -8.93729534823251e-15
  outer loop
    vertex 5744.65907807109 26305.883611971618 140.00000000000045
    vertex 5744.659078071095 26295.883611971618 280.00000000000114
    vertex 5744.659078071095 26305.883611971618 280.00000000000114
  endloop
endfacet
facet normal 1.0 -2.7919076659393166e-30 -5.0959236830294685e-14
  outer loop
    vertex 5734.659078071086 26175.8836119716 175.00000000000347
    vertex 5734.659078071095 26165.883611971614 280.0000000000023
    vertex 5734.659078071086 26165.883611971614 175.00000000000347
  endloop
endfacet
facet normal 1.0 -2.7919076659393166e-30 -5.0959236830294685e-14
  outer loop
    vertex 5734.659078071095 26165.883611971614 280.0000000000023
    vertex 5734.659078071086 26175.8836119716 175.00000000000347
    vertex 5734.659078071095 26175.88361197161 280.0000000000023
  endloop
endfacet
facet normal 0.0 1.0 0.0
  outer loop
    vertex 5604.659078071093 26165.883611971614 140.0000000000065
    vertex 5639.659078071094 26165.883611971614 150.00000000000173
    vertex 5709.659078071093 26165.883611971614 149.9999999999996
  endloop
endfacet
facet normal 0.0 1.0 0.0
  outer loop
    vertex 5639.659078071094 26165.883611971614 150.00000000000173
    vertex 5604.659078071093 26165.883611971614 140.0000000000065
    vertex 5614.659078071096 26165.883611971614 174.99999999999883
  endloop
endfacet
facet normal 0.0 1.0 0.0
  outer loop
    vertex 5614.659078071096 26165.883611971614 174.99999999999883
    vertex 5604.659078071093 26165.883611971614 140.0000000000065
    vertex 5604.659078071091 26165.883611971614 280.0000000000023
  endloop
endfacet
facet normal 0.0 1.0 0.0
  outer loop
    vertex 5614.659078071096 26165.883611971614 174.99999999999883
    vertex 5604.659078071091 26165.883611971614 280.0000000000023
    vertex 5614.659078071094 26165.883611971614 280.00000000000574
  endloop
endfacet
facet normal 0.0 1.0 0.0
  outer loop
    vertex 5744.65907807109 26165.883611971614 140.00000000000045
    vertex 5734.659078071086 26165.883611971614 175.00000000000347
    vertex 5744.659078071095 26165.883611971614 280.00000000000114
  endloop
endfacet
facet normal 0.0 1.0 0.0
  outer loop
    vertex 5734.659078071086 26165.883611971614 175.00000000000347
    vertex 5744.65907807109 26165.883611971614 140.00000000000045
    vertex 5709.659078071093 26165.883611971614 149.9999999999996
  endloop
endfacet
facet normal 0.0 1.0 0.0
  outer loop
    vertex 5709.659078071093 26165.883611971614 149.9999999999996
    vertex 5744.65907807109 26165.883611971614 140.00000000000045
    vertex 5604.659078071093 26165.883611971614 140.0000000000065
  endloop
endfacet
facet normal 0.0 1.0 0.0
  outer loop
    vertex 5744.659078071095 26165.883611971614 280.00000000000114
    vertex 5734.659078071086 26165.883611971614 175.00000000000347
    vertex 5734.659078071095 26165.883611971614 280.0000000000023
  endloop
endfacet
facet normal -1.0 0.0 2.3897550605056488e-14
  outer loop
    vertex 5614.659078071094 26175.88361197161 280.00000000000574
    vertex 5614.659078071096 26165.883611971614 174.99999999999883
    vertex 5614.659078071094 26165.883611971614 280.00000000000574
  endloop
endfacet
facet normal -1.0 0.0 2.3897550605056488e-14
  outer loop
    vertex 5614.659078071096 26165.883611971614 174.99999999999883
    vertex 5614.659078071094 26175.88361197161 280.00000000000574
    vertex 5614.659078071096 26175.88361197161 174.99999999999883
  endloop
endfacet
facet normal 0.0 -1.0 0.0
  outer loop
    vertex 5614.659078071094 26175.88361197161 280.00000000000574
    vertex 5604.659078071094 26175.88361197161 175.0000000000047
    vertex 5614.659078071096 26175.88361197161 174.99999999999883
  endloop
endfacet
facet normal 0.0 -1.0 0.0
  outer loop
    vertex 5604.659078071094 26175.88361197161 175.0000000000047
    vertex 5614.659078071094 26175.88361197161 280.00000000000574
    vertex 5604.659078071091 26175.88361197161 280.0000000000023
  endloop
endfacet
facet normal 1.0 0.0 -2.3897550605056488e-14
  outer loop
    vertex 5604.659078071093 26165.883611971614 140.0000000000065
    vertex 5604.659078071094 26175.88361197161 175.0000000000047
    vertex 5604.659078071091 26165.883611971614 280.0000000000023
  endloop
endfacet
facet normal 1.0 0.0 -2.3897550605056488e-14
  outer loop
    vertex 5604.659078071094 26175.88361197161 175.0000000000047
    vertex 5604.659078071093 26165.883611971614 140.0000000000065
    vertex 5604.659078071091 26200.88361197161 150.0000000000008
  endloop
endfacet
facet normal 1.0 0.0 -2.3897550605056488e-14
  outer loop
    vertex 5604.659078071091 26200.88361197161 150.0000000000008
    vertex 5604.659078071093 26165.883611971614 140.0000000000065
    vertex 5604.659078071093 26305.883611971618 140.0000000000065
  endloop
endfacet
facet normal 1.0 0.0 -2.3897550605056488e-14
  outer loop
    vertex 5604.659078071091 26200.88361197161 150.0000000000008
    vertex 5604.659078071093 26305.883611971618 140.0000000000065
    vertex 5604.659078071091 26270.883611971618 150.0000000000008
  endloop
endfacet
facet normal 1.0 0.0 -2.3897550605056488e-14
  outer loop
    vertex 5604.659078071091 26270.883611971618 150.0000000000008
    vertex 5604.659078071093 26305.883611971618 140.0000000000065
    vertex 5604.659078071094 26295.883611971607 175.0000000000047
  endloop
endfacet
facet normal 1.0 0.0 -2.3897550605056488e-14
  outer loop
    vertex 5604.659078071094 26295.883611971607 175.0000000000047
    vertex 5604.659078071093 26305.883611971618 140.0000000000065
    vertex 5604.659078071091 26295.883611971618 280.0000000000023
  endloop
endfacet
facet normal 1.0 0.0 -2.3897550605056488e-14
  outer loop
    vertex 5604.659078071091 26295.883611971618 280.0000000000023
    vertex 5604.659078071093 26305.883611971618 140.0000000000065
    vertex 5604.659078071091 26305.883611971618 280.0000000000023
  endloop
endfacet
facet normal 1.0 0.0 -2.3897550605056488e-14
  outer loop
    vertex 5604.659078071091 26175.88361197161 280.0000000000023
    vertex 5604.659078071091 26165.883611971614 280.0000000000023
    vertex 5604.659078071094 26175.88361197161 175.0000000000047
  endloop
endfacet
facet normal -2.5866283278614845e-27 1.0 -1.100055496430114e-13
  outer loop
    vertex 5604.659078071094 26295.883611971607 175.0000000000047
    vertex 5614.659078071094 26295.883611971618 280.00000000000574
    vertex 5614.659078071093 26295.883611971607 174.99999999999793
  endloop
endfacet
facet normal -2.5866283278614845e-27 1.0 -1.100055496430114e-13
  outer loop
    vertex 5614.659078071094 26295.883611971618 280.00000000000574
    vertex 5604.659078071094 26295.883611971607 175.0000000000047
    vertex 5604.659078071091 26295.883611971618 280.0000000000023
  endloop
endfacet
facet normal -2.3897550605056488e-14 0.0 -1.0
  outer loop
    vertex 5614.659078071096 26270.883611971618 150.000000000002
    vertex 5604.659078071091 26200.88361197161 150.0000000000008
    vertex 5604.659078071091 26270.883611971618 150.0000000000008
  endloop
endfacet
facet normal -2.3897550605056488e-14 0.0 -1.0
  outer loop
    vertex 5604.659078071091 26200.88361197161 150.0000000000008
    vertex 5614.659078071096 26270.883611971618 150.000000000002
    vertex 5614.659078071098 26200.88361197161 150.00000000000233
  endloop
endfacet
facet normal -1.0 -4.952822628807934e-15 1.0130785099704557e-14
  outer loop
    vertex 5614.659078071098 26200.88361197161 150.00000000000233
    vertex 5614.659078071097 26175.88361197161 150.000000000002
    vertex 5614.659078071096 26175.88361197161 174.99999999999883
  endloop
endfacet
facet normal -1.0 -4.952822628807934e-15 1.0130785099704557e-14
  outer loop
    vertex 5614.659078071097 26175.88361197161 150.000000000002
    vertex 5614.659078071098 26200.88361197161 150.00000000000233
    vertex 5614.659078071092 26175.88361197161 140.00000000000443
  endloop
endfacet
facet normal -1.0 -4.952822628807934e-15 1.0130785099704557e-14
  outer loop
    vertex 5614.659078071092 26175.88361197161 140.00000000000443
    vertex 5614.659078071098 26200.88361197161 150.00000000000233
    vertex 5614.659078071092 26295.883611971607 140.00000000000443
  endloop
endfacet
facet normal -1.0 -4.952822628807934e-15 1.0130785099704557e-14
  outer loop
    vertex 5614.659078071092 26295.883611971607 140.00000000000443
    vertex 5614.659078071098 26200.88361197161 150.00000000000233
    vertex 5614.659078071096 26270.883611971618 150.000000000002
  endloop
endfacet
facet normal -1.0 -4.952822628807934e-15 1.0130785099704557e-14
  outer loop
    vertex 5614.659078071092 26295.883611971607 140.00000000000443
    vertex 5614.659078071096 26270.883611971618 150.000000000002
    vertex 5614.659078071093 26295.883611971607 174.99999999999793
  endloop
endfacet
facet normal -1.0 -4.952822628807934e-15 1.0130785099704557e-14
  outer loop
    vertex 5614.659078071092 26295.883611971607 140.00000000000443
    vertex 5614.659078071093 26295.883611971607 174.99999999999793
    vertex 5614.659078071097 26295.883611971607 150.000000000002
  endloop
endfacet
facet normal -5.162942376696536e-14 1.0 4.3179748458000316e-14
  outer loop
    vertex 5614.659078071097 26295.883611971607 150.000000000002
    vertex 5709.659078071093 26295.883611971614 149.9999999999996
    vertex 5614.659078071092 26295.883611971607 140.00000000000443
  endloop
endfacet
facet normal -5.162942376696536e-14 1.0 4.3179748458000316e-14
  outer loop
    vertex 5709.659078071093 26295.883611971614 149.9999999999996
    vertex 5614.659078071097 26295.883611971607 150.000000000002
    vertex 5639.659078071094 26295.883611971607 150.00000000000173
  endloop
endfacet
facet normal -5.162942376696536e-14 1.0 4.3179748458000316e-14
  outer loop
    vertex 5639.659078071094 26295.883611971607 150.00000000000173
    vertex 5614.659078071097 26295.883611971607 150.000000000002
    vertex 5614.659078071093 26295.883611971607 174.99999999999793
  endloop
endfacet
facet normal -5.162942376696536e-14 1.0 4.3179748458000316e-14
  outer loop
    vertex 5614.659078071092 26295.883611971607 140.00000000000443
    vertex 5734.659078071088 26295.883611971607 150.0000000000032
    vertex 5734.659078071094 26295.883611971618 139.99999999999935
  endloop
endfacet
facet normal -5.162942376696536e-14 1.0 4.3179748458000316e-14
  outer loop
    vertex 5734.659078071088 26295.883611971607 150.0000000000032
    vertex 5614.659078071092 26295.883611971607 140.00000000000443
    vertex 5709.659078071093 26295.883611971614 149.9999999999996
  endloop
endfacet
facet normal -5.162942376696536e-14 1.0 4.3179748458000316e-14
  outer loop
    vertex 5734.659078071088 26295.883611971607 150.0000000000032
    vertex 5709.659078071093 26295.883611971614 149.9999999999996
    vertex 5734.659078071086 26295.883611971614 175.00000000000077
  endloop
endfacet
facet normal -2.3897550605056488e-14 0.0 -1.0
  outer loop
    vertex 5709.659078071093 26305.883611971618 149.9999999999996
    vertex 5639.659078071094 26295.883611971607 150.00000000000173
    vertex 5639.659078071094 26305.883611971618 150.00000000000173
  endloop
endfacet
facet normal -2.3897550605056488e-14 0.0 -1.0
  outer loop
    vertex 5639.659078071094 26295.883611971607 150.00000000000173
    vertex 5709.659078071093 26305.883611971618 149.9999999999996
    vertex 5709.659078071093 26295.883611971614 149.9999999999996
  endloop
endfacet
facet normal -2.3897550605056488e-14 0.0 -1.0
  outer loop
    vertex 5709.659078071093 26175.8836119716 149.9999999999996
    vertex 5639.659078071094 26165.883611971614 150.00000000000173
    vertex 5639.659078071094 26175.88361197161 150.00000000000173
  endloop
endfacet
facet normal -2.3897550605056488e-14 0.0 -1.0
  outer loop
    vertex 5639.659078071094 26165.883611971614 150.00000000000173
    vertex 5709.659078071093 26175.8836119716 149.9999999999996
    vertex 5709.659078071093 26165.883611971614 149.9999999999996
  endloop
endfacet
facet normal 2.441102875394563e-13 9.108782456823628e-13 -1.0
  outer loop
    vertex 5734.659078071086 26270.883611971618 149.99999999998317
    vertex 5744.659078071104 26200.88361197161 149.999999999915
    vertex 5734.659078071072 26200.88361197161 149.99999999991476
  endloop
endfacet
facet normal 2.441102875394563e-13 9.108782456823628e-13 -1.0
  outer loop
    vertex 5744.659078071104 26200.88361197161 149.999999999915
    vertex 5734.659078071086 26270.883611971618 149.99999999998317
    vertex 5744.65907807109 26270.883611971618 149.99999999997527
  endloop
endfacet
facet normal -2.3897550605056488e-14 0.0 -1.0
  outer loop
    vertex 5744.659078071095 26175.88361197161 280.00000000000114
    vertex 5734.659078071095 26165.883611971614 280.0000000000023
    vertex 5734.659078071095 26175.88361197161 280.0000000000023
  endloop
endfacet
facet normal -2.3897550605056488e-14 0.0 -1.0
  outer loop
    vertex 5734.659078071095 26165.883611971614 280.0000000000023
    vertex 5744.659078071095 26175.88361197161 280.00000000000114
    vertex 5744.659078071095 26165.883611971614 280.00000000000114
  endloop
endfacet
facet normal -1.2933141639307423e-27 1.0 -5.50027748215057e-14
  outer loop
    vertex 5734.659078071086 26295.883611971614 175.00000000000077
    vertex 5744.659078071095 26295.883611971618 280.00000000000114
    vertex 5744.659078071095 26295.883611971614 174.99999999999955
  endloop
endfacet
facet normal -1.2933141639307423e-27 1.0 -5.50027748215057e-14
  outer loop
    vertex 5744.659078071095 26295.883611971618 280.00000000000114
    vertex 5734.659078071086 26295.883611971614 175.00000000000077
    vertex 5734.659078071095 26295.883611971618 280.0000000000023
  endloop
endfacet
facet normal 0.0 -1.0 0.0
  outer loop
    vertex 5604.659078071093 26305.883611971618 140.0000000000065
    vertex 5614.659078071096 26305.883611971618 174.99999999999883
    vertex 5604.659078071091 26305.883611971618 280.0000000000023
  endloop
endfacet
facet normal 0.0 -1.0 0.0
  outer loop
    vertex 5614.659078071096 26305.883611971618 174.99999999999883
    vertex 5604.659078071093 26305.883611971618 140.0000000000065
    vertex 5639.659078071094 26305.883611971618 150.00000000000173
  endloop
endfacet
facet normal 0.0 -1.0 0.0
  outer loop
    vertex 5639.659078071094 26305.883611971618 150.00000000000173
    vertex 5604.659078071093 26305.883611971618 140.0000000000065
    vertex 5709.659078071093 26305.883611971618 149.9999999999996
  endloop
endfacet
facet normal 0.0 -1.0 0.0
  outer loop
    vertex 5604.659078071091 26305.883611971618 280.0000000000023
    vertex 5614.659078071096 26305.883611971618 174.99999999999883
    vertex 5614.659078071094 26305.883611971618 280.00000000000574
  endloop
endfacet
facet normal 0.0 -1.0 0.0
  outer loop
    vertex 5744.65907807109 26305.883611971618 140.00000000000045
    vertex 5709.659078071093 26305.883611971618 149.9999999999996
    vertex 5604.659078071093 26305.883611971618 140.0000000000065
  endloop
endfacet
facet normal 0.0 -1.0 0.0
  outer loop
    vertex 5709.659078071093 26305.883611971618 149.9999999999996
    vertex 5744.65907807109 26305.883611971618 140.00000000000045
    vertex 5734.659078071086 26305.883611971618 175.0000000000024
  endloop
endfacet
facet normal 0.0 -1.0 0.0
  outer loop
    vertex 5734.659078071086 26305.883611971618 175.0000000000024
    vertex 5744.65907807109 26305.883611971618 140.00000000000045
    vertex 5744.659078071095 26305.883611971618 280.00000000000114
  endloop
endfacet
facet normal 0.0 -1.0 0.0
  outer loop
    vertex 5734.659078071086 26305.883611971618 175.0000000000024
    vertex 5744.659078071095 26305.883611971618 280.00000000000114
    vertex 5734.659078071095 26305.883611971618 280.0000000000023
  endloop
endfacet
facet normal -2.3897550605056488e-14 0.0 -1.0
  outer loop
    vertex 5744.659078071095 26305.883611971618 280.00000000000114
    vertex 5734.659078071095 26295.883611971618 280.0000000000023
    vertex 5734.659078071095 26305.883611971618 280.0000000000023
  endloop
endfacet
facet normal -2.3897550605056488e-14 0.0 -1.0
  outer loop
    vertex 5734.659078071095 26295.883611971618 280.0000000000023
    vertex 5744.659078071095 26305.883611971618 280.00000000000114
    vertex 5744.659078071095 26295.883611971618 280.00000000000114
  endloop
endfacet
facet normal -2.3897550605056488e-14 0.0 -1.0
  outer loop
    vertex 5614.659078071094 26305.883611971618 280.00000000000574
    vertex 5604.659078071091 26295.883611971618 280.0000000000023
    vertex 5604.659078071091 26305.883611971618 280.0000000000023
  endloop
endfacet
facet normal -2.3897550605056488e-14 0.0 -1.0
  outer loop
    vertex 5604.659078071091 26295.883611971618 280.0000000000023
    vertex 5614.659078071094 26305.883611971618 280.00000000000574
    vertex 5614.659078071094 26295.883611971618 280.00000000000574
  endloop
endfacet
facet normal -2.3897550605056488e-14 0.0 -1.0
  outer loop
    vertex 5614.659078071094 26175.88361197161 280.00000000000574
    vertex 5604.659078071091 26165.883611971614 280.0000000000023
    vertex 5604.659078071091 26175.88361197161 280.0000000000023
  endloop
endfacet
facet normal -2.3897550605056488e-14 0.0 -1.0
  outer loop
    vertex 5604.659078071091 26165.883611971614 280.0000000000023
    vertex 5614.659078071094 26175.88361197161 280.00000000000574
    vertex 5614.659078071094 26165.883611971614 280.00000000000574
  endloop
endfacet
facet normal 0.7071067811865633 0.0 0.7071067811865317
  outer loop
    vertex 5639.659078071094 26175.88361197161 150.00000000000173
    vertex 5614.659078071096 26165.883611971614 174.99999999999883
    vertex 5639.659078071094 26165.883611971614 150.00000000000173
  endloop
endfacet
facet normal 0.7071067811865633 0.0 0.7071067811865317
  outer loop
    vertex 5614.659078071096 26165.883611971614 174.99999999999883
    vertex 5639.659078071094 26175.88361197161 150.00000000000173
    vertex 5614.659078071096 26175.88361197161 174.99999999999883
  endloop
endfacet
facet normal -0.707106781186571 0.0 0.7071067811865241
  outer loop
    vertex 5734.659078071086 26175.8836119716 175.00000000000347
    vertex 5709.659078071093 26165.883611971614 149.9999999999996
    vertex 5734.659078071086 26165.883611971614 175.00000000000347
  endloop
endfacet
facet normal -0.707106781186571 0.0 0.7071067811865241
  outer loop
    vertex 5709.659078071093 26165.883611971614 149.9999999999996
    vertex 5734.659078071086 26175.8836119716 175.00000000000347
    vertex 5709.659078071093 26175.8836119716 149.9999999999996
  endloop
endfacet
facet normal 1.677607468256731e-14 0.7071067811865462 0.7071067811865488
  outer loop
    vertex 5604.659078071094 26175.88361197161 175.0000000000047
    vertex 5614.659078071098 26200.88361197161 150.00000000000233
    vertex 5604.659078071091 26200.88361197161 150.0000000000008
  endloop
endfacet
facet normal 1.677607468256731e-14 0.7071067811865462 0.7071067811865488
  outer loop
    vertex 5614.659078071098 26200.88361197161 150.00000000000233
    vertex 5604.659078071094 26175.88361197161 175.0000000000047
    vertex 5614.659078071096 26175.88361197161 174.99999999999883
  endloop
endfacet
facet normal 1.6623419016682293e-14 -0.7071067811867099 0.7071067811863851
  outer loop
    vertex 5614.659078071096 26270.883611971618 150.000000000002
    vertex 5604.659078071094 26295.883611971607 175.0000000000047
    vertex 5604.659078071091 26270.883611971618 150.0000000000008
  endloop
endfacet
facet normal 1.6623419016682293e-14 -0.7071067811867099 0.7071067811863851
  outer loop
    vertex 5604.659078071094 26295.883611971607 175.0000000000047
    vertex 5614.659078071096 26270.883611971618 150.000000000002
    vertex 5614.659078071093 26295.883611971607 174.99999999999793
  endloop
endfacet
facet normal -4.712640891548375e-13 0.7071067811876433 0.7071067811854519
  outer loop
    vertex 5734.659078071086 26175.8836119716 175.00000000000347
    vertex 5744.659078071104 26200.88361197161 149.999999999915
    vertex 5734.659078071072 26200.88361197161 149.99999999991476
  endloop
endfacet
facet normal -4.712640891548375e-13 0.7071067811876433 0.7071067811854519
  outer loop
    vertex 5744.659078071104 26200.88361197161 149.999999999915
    vertex 5734.659078071086 26175.8836119716 175.00000000000347
    vertex 5744.659078071108 26175.883611971607 174.99999999999972
  endloop
endfacet
facet normal 2.887645678129099e-13 -1.0 8.250416223226748e-14
  outer loop
    vertex 5744.659078071095 26175.88361197161 280.00000000000114
    vertex 5734.659078071086 26175.8836119716 175.00000000000347
    vertex 5744.659078071108 26175.883611971607 174.99999999999972
  endloop
endfacet
facet normal 2.887645678129099e-13 -1.0 8.250416223226748e-14
  outer loop
    vertex 5734.659078071086 26175.8836119716 175.00000000000347
    vertex 5744.659078071095 26175.88361197161 280.00000000000114
    vertex 5734.659078071095 26175.88361197161 280.0000000000023
  endloop
endfacet
facet normal -4.562600239871739e-14 -1.0 -1.5112911960301595e-13
  outer loop
    vertex 5734.659078071088 26175.88361197161 150.00000000000392
    vertex 5614.659078071092 26175.88361197161 140.00000000000443
    vertex 5734.659078071094 26175.88361197161 139.99999999999935
  endloop
endfacet
facet normal -4.562600239871739e-14 -1.0 -1.5112911960301595e-13
  outer loop
    vertex 5614.659078071092 26175.88361197161 140.00000000000443
    vertex 5734.659078071088 26175.88361197161 150.00000000000392
    vertex 5709.659078071093 26175.8836119716 149.9999999999996
  endloop
endfacet
facet normal -4.562600239871739e-14 -1.0 -1.5112911960301595e-13
  outer loop
    vertex 5709.659078071093 26175.8836119716 149.9999999999996
    vertex 5734.659078071088 26175.88361197161 150.00000000000392
    vertex 5734.659078071086 26175.8836119716 175.00000000000347
  endloop
endfacet
facet normal -4.562600239871739e-14 -1.0 -1.5112911960301595e-13
  outer loop
    vertex 5709.659078071093 26175.8836119716 149.9999999999996
    vertex 5614.659078071097 26175.88361197161 150.000000000002
    vertex 5614.659078071092 26175.88361197161 140.00000000000443
  endloop
endfacet
facet normal -4.562600239871739e-14 -1.0 -1.5112911960301595e-13
  outer loop
    vertex 5614.659078071097 26175.88361197161 150.000000000002
    vertex 5709.659078071093 26175.8836119716 149.9999999999996
    vertex 5639.659078071094 26175.88361197161 150.00000000000173
  endloop
endfacet
facet normal -4.562600239871739e-14 -1.0 -1.5112911960301595e-13
  outer loop
    vertex 5614.659078071097 26175.88361197161 150.000000000002
    vertex 5639.659078071094 26175.88361197161 150.00000000000173
    vertex 5614.659078071096 26175.88361197161 174.99999999999883
  endloop
endfacet
facet normal 1.6776074682569543e-14 -0.707106781186934 0.7071067811861611
  outer loop
    vertex 5744.659078071095 26295.883611971614 174.99999999999955
    vertex 5734.659078071086 26270.883611971618 149.99999999998317
    vertex 5744.65907807109 26270.883611971618 149.99999999997527
  endloop
endfacet
facet normal 1.6776074682569543e-14 -0.707106781186934 0.7071067811861611
  outer loop
    vertex 5734.659078071086 26270.883611971618 149.99999999998317
    vertex 5744.659078071095 26295.883611971614 174.99999999999955
    vertex 5734.659078071086 26295.883611971614 175.00000000000077
  endloop
endfacet
facet normal 0.7071067811865586 -2.5513951425558887e-14 0.7071067811865366
  outer loop
    vertex 5639.659078071094 26305.883611971618 150.00000000000173
    vertex 5614.659078071093 26295.883611971607 174.99999999999793
    vertex 5639.659078071094 26295.883611971607 150.00000000000173
  endloop
endfacet
facet normal 0.7071067811865586 -2.5513951425558887e-14 0.7071067811865366
  outer loop
    vertex 5614.659078071093 26295.883611971607 174.99999999999793
    vertex 5639.659078071094 26305.883611971618 150.00000000000173
    vertex 5614.659078071096 26305.883611971618 174.99999999999883
  endloop
endfacet
facet normal -1.0 3.60955709766213e-14 2.714495295208507e-14
  outer loop
    vertex 5614.659078071094 26295.883611971618 280.00000000000574
    vertex 5614.659078071096 26305.883611971618 174.99999999999883
    vertex 5614.659078071093 26295.883611971607 174.99999999999793
  endloop
endfacet
facet normal -1.0 3.60955709766213e-14 2.714495295208507e-14
  outer loop
    vertex 5614.659078071096 26305.883611971618 174.99999999999883
    vertex 5614.659078071094 26295.883611971618 280.00000000000574
    vertex 5614.659078071094 26305.883611971618 280.00000000000574
  endloop
endfacet
facet normal -0.7071067811866063 7.742819502110133e-14 0.7071067811864887
  outer loop
    vertex 5734.659078071086 26305.883611971618 175.0000000000024
    vertex 5709.659078071093 26295.883611971614 149.9999999999996
    vertex 5734.659078071086 26295.883611971614 175.00000000000077
  endloop
endfacet
facet normal -0.7071067811866063 7.742819502110133e-14 0.7071067811864887
  outer loop
    vertex 5709.659078071093 26295.883611971614 149.9999999999996
    vertex 5734.659078071086 26305.883611971618 175.0000000000024
    vertex 5709.659078071093 26305.883611971618 149.9999999999996
  endloop
endfacet
facet normal 1.0 -1.335761254436328e-14 2.867150961094467e-14
  outer loop
    vertex 5734.659078071072 26200.88361197161 149.99999999991476
    vertex 5734.659078071086 26175.8836119716 175.00000000000347
    vertex 5734.659078071088 26175.88361197161 150.00000000000392
  endloop
endfacet
facet normal 1.0 -1.335761254436328e-14 2.867150961094467e-14
  outer loop
    vertex 5734.659078071094 26295.883611971618 139.99999999999935
    vertex 5734.659078071088 26175.88361197161 150.00000000000392
    vertex 5734.659078071094 26175.88361197161 139.99999999999935
  endloop
endfacet
facet normal 1.0 -1.335761254436328e-14 2.867150961094467e-14
  outer loop
    vertex 5734.659078071088 26175.88361197161 150.00000000000392
    vertex 5734.659078071094 26295.883611971618 139.99999999999935
    vertex 5734.659078071072 26200.88361197161 149.99999999991476
  endloop
endfacet
facet normal 1.0 -1.335761254436328e-14 2.867150961094467e-14
  outer loop
    vertex 5734.659078071072 26200.88361197161 149.99999999991476
    vertex 5734.659078071094 26295.883611971618 139.99999999999935
    vertex 5734.659078071086 26270.883611971618 149.99999999998317
  endloop
endfacet
facet normal 1.0 -1.335761254436328e-14 2.867150961094467e-14
  outer loop
    vertex 5734.659078071086 26270.883611971618 149.99999999998317
    vertex 5734.659078071094 26295.883611971618 139.99999999999935
    vertex 5734.659078071088 26295.883611971607 150.0000000000032
  endloop
endfacet
facet normal 1.0 -1.335761254436328e-14 2.867150961094467e-14
  outer loop
    vertex 5734.659078071086 26295.883611971614 175.00000000000077
    vertex 5734.659078071086 26270.883611971618 149.99999999998317
    vertex 5734.659078071088 26295.883611971607 150.0000000000032
  endloop
endfacet
facet normal 1.0 -1.082867129298639e-13 -7.527312106958561e-14
  outer loop
    vertex 5734.659078071086 26305.883611971618 175.0000000000024
    vertex 5734.659078071095 26295.883611971618 280.0000000000023
    vertex 5734.659078071086 26295.883611971614 175.00000000000077
  endloop
endfacet
facet normal 1.0 -1.082867129298639e-13 -7.527312106958561e-14
  outer loop
    vertex 5734.659078071095 26295.883611971618 280.0000000000023
    vertex 5734.659078071086 26305.883611971618 175.0000000000024
    vertex 5734.659078071095 26305.883611971618 280.0000000000023
  endloop
endfacet
endsolid TB
